# xmcd
#
# Track frame offsets:
#	150
#	20297
#	34456
#	51048
#	65931
#	85273
#	101263
#	119898
#	136718
#	149819
#	162588
#	182573
#	196898
#	211662
#	231783
#	260449
#
# Disc length: 3776 seconds
#
# Revision: 0
# Processed by: cddbd v1.5.2PL0 Copyright (c) Steve Scherf et al.
# Submitted via: EZCDAudioConverter 6.0.8.1
#
DISCID=eb0ebe10
DTITLE=Huojuva lato - Takkulan baari
DYEAR=2017
DGENRE=Country
TTITLE0=Jussi Raittinen, Huojuva lato - Takkulan baari
TTITLE1=Mikko Alatalo, Huojuva lato - Pohojanmaan junasa
TTITLE2=Pekka Myllykoski, Huojuva lato - Tuuli puita taivuttaa
TTITLE3=Kapa Ahonen, Huojuva lato - Yksi vain ei tuu
TTITLE4=Petri Pettersson, Huojuva lato - Päättömällä pollella
TTITLE5=Pilli Pajukallio, Huojuva lato - Kantri
TTITLE6=Jussi Raittinen, Huojuva lato - Vanha rokkistara
TTITLE7=Pekka Myllykoski, Huojuva lato - Särkynytsydämiset
TTITLE8=Kapa Ahonen, Huojuva lato - Taksin taustapeili
TTITLE9=Kapa Ahonen, Huojuva lato - Radiosta kuulet sen
TTITLE10=Petri Pettersson, Huojuva lato - Maalaismaisema
TTITLE11=Kapa Ahonen, Huojuva lato - Jos kaiken alkaa voisin uudelleen
TTITLE12=Mikko Alatalo, Huojuva lato - Kotisaunan lauteilla
TTITLE13=Pilli Pajukallio, Huojuva lato - Vanha kaarti
TTITLE14=Pekka Myllykoski, Huojuva lato - Kantripaskaa
TTITLE15=Jussi Raittinen, Huojuva lato - Herran huosta kaiken kantaa
EXTD=
EXTT0=
EXTT1=
EXTT2=
EXTT3=
EXTT4=
EXTT5=
EXTT6=
EXTT7=
EXTT8=
EXTT9=
EXTT10=
EXTT11=
EXTT12=
EXTT13=
EXTT14=
EXTT15=
PLAYORDER=
